inDegrees=no
num_controls=7
num_derivatives=13
num_iterations=97
num_multipliers=7
num_parameters=0
num_slacks=7
num_states=26
objective=0.489232
objective_accelerations=0.009478
objective_balance=0.000470
objective_effort=0.008276
objective_height=0.452505
objective_ligament=0.018503
solver_duration=1586.186006
status=Solve_Succeeded
success=true
DataType=double
version=3
OpenSimVersion=4.5
endheader
time	/jointset/ground_pelvis/pelvis_tilt/value	/jointset/ground_pelvis/pelvis_tx/value	/jointset/ground_pelvis/pelvis_ty/value	/jointset/hip_l/hip_flexion_l/value	/jointset/hip_l/hip_adduction_l/value	/jointset/hip_l/hip_rotation_l/value	/jointset/back/lumbar_extension/value	/jointset/patellofemoral_l/patellar_flexion_l/value	/jointset/knee_l/knee_flexion_l/value	/jointset/knee_l/knee_adduction_l/value	/jointset/knee_l/knee_rotation_l/value	/jointset/ankle_l/ankle_angle_l/value	/jointset/subtalar_l/subtalar_angle_l/value	/jointset/ground_pelvis/pelvis_tilt/speed	/jointset/ground_pelvis/pelvis_tx/speed	/jointset/ground_pelvis/pelvis_ty/speed	/jointset/hip_l/hip_flexion_l/speed	/jointset/hip_l/hip_adduction_l/speed	/jointset/hip_l/hip_rotation_l/speed	/jointset/back/lumbar_extension/speed	/jointset/patellofemoral_l/patellar_flexion_l/speed	/jointset/knee_l/knee_flexion_l/speed	/jointset/knee_l/knee_adduction_l/speed	/jointset/knee_l/knee_rotation_l/speed	/jointset/ankle_l/ankle_angle_l/speed	/jointset/subtalar_l/subtalar_angle_l/speed	/forceset/tau_hip_flexion_l	/forceset/tau_hip_adduction_l	/forceset/tau_hip_rotation_l	/forceset/tau_knee_flexion_l	/forceset/tau_ankle_angle_l	/forceset/tau_subtalar_angle_l	/forceset/tau_lumbar_extension	lambda_cid13_p0	lambda_cid13_p1	lambda_cid13_p2	lambda_cid13_p3	lambda_cid13_p4	lambda_cid13_p5	lambda_cid14_p0	/jointset/ground_pelvis/pelvis_tilt/accel	/jointset/ground_pelvis/pelvis_tx/accel	/jointset/ground_pelvis/pelvis_ty/accel	/jointset/hip_l/hip_flexion_l/accel	/jointset/hip_l/hip_adduction_l/accel	/jointset/hip_l/hip_rotation_l/accel	/jointset/back/lumbar_extension/accel	/jointset/patellofemoral_l/patellar_flexion_l/accel	/jointset/knee_l/knee_flexion_l/accel	/jointset/knee_l/knee_adduction_l/accel	/jointset/knee_l/knee_rotation_l/accel	/jointset/ankle_l/ankle_angle_l/accel	/jointset/subtalar_l/subtalar_angle_l/accel	gamma_cid13_p0	gamma_cid13_p1	gamma_cid13_p2	gamma_cid13_p3	gamma_cid13_p4	gamma_cid13_p5	gamma_cid14_p0
1	0.2840369799778611	0.1850796966518401	0.8720836242635186	2.028862137437451e-05	-0.3585414315876738	-0.1775469809015747	-0.4290816719377196	0.6126800775915386	0.612680077591474	-0.02141408547611358	-0.1745199596618777	0.4362614194942278	0.2366211458583144	-0.113160653922231	0.04557704979016462	0.009595569418603716	-0.002980984685763541	0.01838406666882726	-0.06759070339606651	0.1392376700420986	-0.1227925468721603	-0.1227925468722051	0.02630547750275122	-9.440363239290891e-06	-0.009854176881026364	0.02563012390338555	0.08518852455189424	0.02849951488145249	-0.0007532724585629755	-0.2361245625564949	-0.04967660622802722	0.004747102981022551	0.008012864177389155	-43.30946393707094	5.818912567888495	-1.548413278629876	-0.7183934205026805	-472.7445752414297	-71.0253341525206	-18.4223701018374	-0.9907349775137628	0.1166175686018548	0.1633014760876713	0.178655588973668	0.2332400189343403	-0.5597331777256902	1.402492831179333	-1.42899080699	-1.428990806990105	0.1803800982640829	0.004560173209205811	-0.6603703498634065	-0.005979268278675579	-2.682986612103253e-09	7.677839668280199e-09	-1.023852092534985e-08	2.671548723873481e-09	-1.057366162496304e-08	4.097480908884468e-09	2.318909643781032e-09
1.01	0.2828554467419343	0.1855408537882041	0.8721878184580907	2.615629151202444e-07	-0.3583458542097399	-0.1782509862611413	-0.4276192772132066	0.6113802938275134	0.6113802938275128	-0.02114206476950026	-0.174520094589461	0.4361289706941853	0.2368767211304568	-0.1231697747298033	0.04661109308367707	0.01125546349395339	-0.0009728108507580896	0.02075093063663328	-0.07321345300967635	0.1532177860321677	-0.1372334950259465	-0.1372334950259361	0.02810341701913342	-1.436747769910848e-05	-0.01673254290032356	0.02545686868707486	0.08466085502649899	0.02936632724368	-0.0008029341031422643	-0.2341190379520433	-0.05266725199547925	0.004689028857238651	0.008212409787396882	-44.30947957104013	5.901531099649119	-1.427144841927137	0.1851884499541215	-473.0975875441886	-70.72008679735622	-18.46909629352087	-1.009567674283691	0.09030561682904624	0.1691600087489084	0.2196407158689868	0.2413380299522302	-0.5640060909008172	1.392247658784571	-1.462040755082021	-1.462040755073599	0.1802153807460642	-0.002544451533596787	-0.7161136174712335	-0.02720794065857771	-2.969537720513072e-09	1.061957086489338e-08	-1.310079330305797e-08	2.833160856871231e-09	-1.230371740202042e-08	6.992994739450156e-09	2.851881576081914e-09
1.02	0.2815731088895449	0.186011052938924	0.8723089769205143	1.864729829501895e-06	-0.3581260225032759	-0.1790113111643867	-0.4260177859936238	0.6099340217948531	0.6099340217949043	-0.02085192176722379	-0.1745201838477478	0.4359248294560454	0.2371297219919658	-0.1333215772135516	0.04738545266133678	0.01298842298891399	0.001345060388455074	0.02323493237438356	-0.0788546121321754	0.1670569690567933	-0.1520902006000972	-0.1520902006000305	0.02992993663234481	-3.065025586532688e-07	-0.02419266449995673	0.02511524177671087	0.08413318550096587	0.03023313960589516	-0.0008525957476679035	-0.232113513347649	-0.05565789776295372	0.004630954733419929	0.008411955397301447	-45.31284485528803	5.981803420926676	-1.302152570714301	1.083173852592789	-473.5255180339637	-70.43445726225409	-18.52101052775542	-1.019271312748936	0.06468082543130477	0.1779145600098606	0.2405950698151585	0.2566675729231946	-0.5634150795035225	1.374306238090666	-1.512142291062881	-1.512142291062809	0.1860961176299143	0.008357791129274471	-0.7767214659306052	-0.03965360708933488	-3.229051199415367e-09	1.326384686419607e-08	-1.41942153985187e-08	3.418822857412627e-09	-1.220607117273814e-08	9.384987487536369e-09	3.04416094897566e-09
1.03	0.280188636220576	0.1864877772552004	0.8724477730448827	2.812251375345778e-05	-0.3578808734772624	-0.1798280452454172	-0.4242785358157599	0.608337391448456	0.6083373914485505	-0.02054352542610055	-0.1745201188336443	0.4356434305873984	0.2373784346726942	-0.1435874454132366	0.04792392732114561	0.01477736393534756	0.003951407060276824	0.02580459999138424	-0.08448548118031017	0.1807765607503201	-0.1672768556081914	-0.1672768556081465	0.03174053016444774	1.045605706372299e-05	-0.03215910173902727	0.02459786724458227	0.08358465810319358	0.03096844384910689	-0.0009028190726058001	-0.2301011669314628	-0.05830860444396344	0.004560975598595244	0.008594431151683988	-46.18958636609855	6.051451185770584	-1.182749306577896	1.842194547109403	-473.7078531766103	-70.13862138983215	-18.57819764451136	-1.032417715491749	0.04310910066632481	0.1803657523054461	0.2773910614134102	0.2585754158567782	-0.5619115439640627	1.368309770245567	-1.528075793052133	-1.52807579305536	0.1772229252292023	-0.002994571352313304	-0.817403498911271	-0.06219402621978704	-3.488288784139013e-09	1.590508760638334e-08	-1.526958800130343e-08	4.008811897418756e-09	-1.208977492298299e-08	1.17718422653932e-08	3.232963867181576e-09
1.04	0.2787010702412229	0.186968821980957	0.8726046549567844	8.179108348989098e-05	-0.3576097359631202	-0.1807008857622254	-0.4224025848939127	0.6065876648145229	0.6065876648146155	-0.02021728675879317	-0.17452003220589	0.4352802076171584	0.2376210906781123	-0.1539402392894477	0.04824953455740286	0.01660558049558503	0.006827217554015484	0.02843262999912427	-0.09007589928827096	0.1943971178543234	-0.1827094581110646	-0.1827094581110413	0.03349840186569689	4.016227445063092e-06	-0.04055748481873907	0.02390390671464584	0.0830361307052101	0.03170374809228799	-0.0009530423975662086	-0.2280888205153686	-0.06095931112501157	0.004490996463697491	0.008776906905915703	-47.06987317767287	6.118540807315743	-1.059307212273496	2.598249990884432	-473.9682242132055	-69.86380518227173	-18.6407266566257	-1.036656448054118	0.02210734072098451	0.1857696827706419	0.2944878341985063	0.2683400510710637	-0.5553248914687224	1.354499320185982	-1.561331790018706	-1.561331790018604	0.1755517514591478	0.004917313281071343	-0.8631106340588657	-0.07497080665090541	-4.22660897216856e-09	2.080539385633671e-08	-1.976189495877358e-08	4.981323741827713e-09	-1.381927357000219e-08	1.794274074168439e-08	3.845814104276078e-09
